<?xml version="1.0" encoding="UTF-8" standalone="no" ?>
<!DOCTYPE svg PUBLIC "-//W3C//DTD SVG 1.1//EN" "http://www.w3.org/Graphics/SVG/1.1/DTD/svg11.dtd">
<svg xmlns="http://www.w3.org/2000/svg" xmlns:xlink="http://www.w3.org/1999/xlink" version="1.1" width="72" height="72" viewBox="1.09 1.09 72 72" xml:space="preserve">
<desc>Created with Fabric.js 5.2.4</desc>
<defs>
</defs>
	<rect width="100%" height="100%" fill="#FFFFFF"/>
<g transform="matrix(1 0 0 1 36 36)" id="549de334-6db3-497f-b6b9-2433c066171b"  >
<rect style="stroke: none; stroke-width: 1; stroke-dasharray: none; stroke-linecap: butt; stroke-dashoffset: 0; stroke-linejoin: miter; stroke-miterlimit: 4; fill: rgb(255,255,255); fill-rule: nonzero; opacity: 1; visibility: hidden;" vector-effect="non-scaling-stroke"  x="-36" y="-36" rx="0" ry="0" width="72" height="72" />
</g>
<g transform="matrix(Infinity NaN NaN Infinity 0 0)" id="48864c6a-a30e-41b6-b0b2-50cbe3f0c07a"  >
</g>
<g transform="matrix(0.07 0 0 0.07 36 36)"  >
<g style="" vector-effect="non-scaling-stroke"   >
		<g transform="matrix(1 0 0 1 2.56 34.92)"  >
<path style="stroke: none; stroke-width: 1; stroke-dasharray: none; stroke-linecap: butt; stroke-dashoffset: 0; stroke-linejoin: miter; stroke-miterlimit: 4; fill: rgb(17,101,169); fill-rule: nonzero; opacity: 1;" vector-effect="non-scaling-stroke"  transform=" translate(-412, -177.02)" d="M 0 0 C 1.06883171 -0.00846703 1.06883171 -0.00846703 2.15925598 -0.0171051 C 4.49831629 -0.02918314 6.83672098 -0.02279564 9.17578125 -0.01171875 C 9.99127441 -0.0095636 10.80676758 -0.00740845 11.64697266 -0.00518799 C 96.70335381 0.35161982 189.18187595 18.01168883 275.48828125 60.30078125 C 276.52831299 60.84871338 276.52831299 60.84871338 277.58935547 61.40771484 C 298.23431831 72.36246852 317.56293663 85.31220097 335.48828125 100.30078125 C 336.60009766 101.20763672 336.60009766 101.20763672 337.734375 102.1328125 C 339.35842993 103.47584384 340.93047209 104.88144401 342.48828125 106.30078125 C 342.48828125 106.96078125 342.48828125 107.62078125 342.48828125 108.30078125 C 343.80828125 108.96078125 345.12828125 109.62078125 346.48828125 110.30078125 C 346.48828125 110.96078125 346.48828125 111.62078125 346.48828125 112.30078125 C 347.14828125 112.30078125 347.80828125 112.30078125 348.48828125 112.30078125 C 370.23359031 135.62510652 381.31008912 163.44144277 387.25683594 194.29931641 C 389.41697232 205.43567171 392.17449998 215.26107737 397.48828125 225.30078125 C 398.01035156 226.28949219 398.53242188 227.27820313 399.0703125 228.296875 C 411.3411675 249.3454219 434.59843752 262.05773133 457.5546875 268.171875 C 525.52698729 284.66337499 598.7257357 266.80861149 664.48828125 248.30078125 C 665.16636841 248.11042297 665.84445557 247.9200647 666.54309082 247.72393799 C 686.49635456 242.10656653 706.05843203 235.49827322 725.48828125 228.30078125 C 726.25400452 228.01761047 727.01972778 227.7344397 727.80865479 227.44268799 C 749.1376891 219.54511757 770.28765911 211.25423756 791.30078125 202.55078125 C 792.27102234 202.14934906 793.24126343 201.74791687 794.24090576 201.33432007 C 802.96299495 197.72230531 811.67991954 194.10076841 820.3407135 190.34371948 C 823.01038084 189.18642507 825.685338 188.04166866 828.36068726 186.89758301 C 830.09772487 186.1470094 831.8251446 185.37429396 833.55200195 184.60058594 C 840.2567766 181.72927389 846.16704196 180.24159517 853.48828125 181.30078125 C 858.36145759 183.94041844 860.46171642 187.92530442 862.05175781 193.15356445 C 863.98739103 202.67475805 861.79711035 212.31117275 859.73828125 221.61328125 C 859.46242188 222.88985596 859.1865625 224.16643066 858.90234375 225.48168945 C 858.11374583 229.09187417 857.30471581 232.69680581 856.48828125 236.30078125 C 856.20114258 237.60354004 856.20114258 237.60354004 855.90820312 238.93261719 C 852.88328746 252.50915042 847.81876508 261.96273247 836.48828125 270.30078125 C 823.81953551 277.71516833 809.99839572 282.29808733 796.17578125 287.05078125 C 793.80790551 287.87263374 791.4402343 288.69507574 789.07275391 289.51806641 C 783.45935381 291.46554104 777.84192675 293.40107831 772.22218704 295.33016014 C 767.78574416 296.85347278 763.35201954 298.38444267 758.91943359 299.91894531 C 728.09964849 310.581995 697.22193854 320.7399911 665.84265137 329.63012695 C 662.81399906 330.49285396 659.79045425 331.37261771 656.76712036 332.25376892 C 623.66418193 341.89665145 589.90511978 349.37603015 555.48828125 352.30078125 C 554.82892578 352.35717773 554.16957031 352.41357422 553.49023438 352.47167969 C 506.66848137 356.30172628 450.82904621 355.41360268 412.38671875 324.83203125 C 387.70881558 303.28043927 376.46557048 279.17772453 371.00463867 247.35766602 C 368.82966446 235.02991655 365.123525 223.50612143 359.48828125 212.30078125 C 359.02164062 211.31078125 358.555 210.32078125 358.07421875 209.30078125 C 348.45298482 189.9635229 332.04994465 173.55758165 314.48828125 161.30078125 C 313.2626009 160.41985482 312.03736117 159.53831509 310.8125 158.65625 C 301.11354998 151.75065593 291.02002273 145.83981977 280.48828125 140.30078125 C 279.8236084 139.94918945 279.15893555 139.59759766 278.47412109 139.23535156 C 202.56461042 99.36330398 111.06521739 85.12451712 26.11328125 82.73828125 C 25.38204041 82.71643768 24.65079956 82.69459412 23.8973999 82.67208862 C 13.16386041 82.35303849 2.44397167 82.19562163 -8.29443359 82.42553711 C -17.38333192 82.54160988 -27.37910149 82.5189604 -34.51171875 76.30078125 C -38.87432308 71.33643839 -38.85845672 66.56446978 -38.78125 60.19140625 C -37.95988024 48.33511232 -34.24992587 36.932642 -30.63671875 25.67578125 C -30.32154297 24.66862061 -30.00636719 23.66145996 -29.68164062 22.6237793 C -26.78241966 13.92393761 -22.85664292 6.7287002 -14.51171875 2.30078125 C -9.55163598 0.63388975 -5.22248455 0.03505463 0 0 Z" stroke-linecap="round" />
</g>
		<g transform="matrix(1 0 0 1 27.46 -95.62)"  >
<path style="stroke: none; stroke-width: 1; stroke-dasharray: none; stroke-linecap: butt; stroke-dashoffset: 0; stroke-linejoin: miter; stroke-miterlimit: 4; fill: rgb(17,101,169); fill-rule: nonzero; opacity: 1;" vector-effect="non-scaling-stroke"  transform=" translate(-338.54, -171.62)" d="M 0 0 C 1.75127833 0.27391494 3.50258094 0.54767467 5.25390625 0.82128906 C 57.52658632 9.0887061 110.10881044 20.51702025 158.125 43.4375 C 158.8571875 43.78619141 159.589375 44.13488281 160.34375 44.49414062 C 164.331703 46.41114377 168.27929703 48.39604784 172.20361328 50.43994141 C 174.2009144 51.47691375 176.20741284 52.49451313 178.21484375 53.51171875 C 210.42262737 70.00117561 240.64132058 92.02456316 262.125 121.4375 C 262.77082031 122.31680176 262.77082031 122.31680176 263.4296875 123.21386719 C 275.69036216 140.12802518 284.10128559 159.08500163 287.70431519 179.65997314 C 291.3955147 200.55423177 296.67647341 219.16890707 311.125 235.4375 C 311.72828125 236.13488281 312.3315625 236.83226562 312.953125 237.55078125 C 334.40355459 260.75870402 370.27927849 264.89369189 399.99169922 266.22851562 C 402.36931944 266.3142675 404.74652079 266.38048492 407.125 266.4375 C 408.41229004 266.47037109 408.41229004 266.47037109 409.72558594 266.50390625 C 471.56273053 267.84382271 531.35381484 251.91138925 589.75793457 233.19592285 C 591.97302852 232.48619263 594.189057 231.77945764 596.40527344 231.07324219 C 614.76896969 225.20526052 632.76123771 218.51582625 650.67431641 211.40863037 C 654.37565152 209.94190535 658.0795375 208.4816586 661.78314209 207.02067566 C 667.0229016 204.95332537 672.2615099 202.88306435 677.5 200.8125 C 678.54426147 200.39984894 679.58852295 199.98719788 680.66442871 199.56204224 C 694.99355824 193.90268567 694.99355824 193.90268567 709.265625 188.1015625 C 740.68117359 175.16734008 740.68117359 175.16734008 753.26953125 180.40234375 C 758.16439537 183.13316268 760.70686795 187.75153074 762.4375 192.93359375 C 766.92725633 209.28549039 770.43331291 228.51492433 762.4375 244.25 C 747.01603876 269.94016693 704.80233189 277.9576372 678.08013916 287.72198486 C 675.25347293 288.75644958 672.4297837 289.7989796 669.60546875 290.83984375 C 602.23088077 315.53066158 533.58306328 335.36114228 462.125 343.4375 C 460.96758301 343.56882324 459.81016602 343.70014648 458.61767578 343.83544922 C 432.09131896 346.68684262 403.56460289 347.50384045 377.125 343.4375 C 376.31047363 343.31391113 375.49594727 343.19032227 374.65673828 343.06298828 C 350.24295984 339.17244024 326.47875521 330.47400005 308.125 313.4375 C 307.26519531 312.64601563 306.40539062 311.85453125 305.51953125 311.0390625 C 299.58829874 305.35010424 294.68814575 299.26246474 290.125 292.4375 C 289.59132813 291.66019531 289.05765625 290.88289063 288.5078125 290.08203125 C 279.46917811 276.10258895 276.68816594 260.44989854 273.67333984 244.35498047 C 268.99059729 219.44012138 259.10304575 199.13435254 243.125 179.4375 C 242.45597656 178.6125 241.78695313 177.7875 241.09765625 176.9375 C 236.0433988 170.98401884 230.23782184 166.26429101 224.125 161.4375 C 222.26914503 159.89786613 220.41496015 158.35621679 218.5625 156.8125 C 207.49248639 147.80454775 195.4374539 140.60284173 183.125 133.4375 C 182.47934082 133.05948242 181.83368164 132.68146484 181.16845703 132.29199219 C 149.40205433 113.89023822 112.70473556 103.5023295 77.125 95.4375 C 76.32946716 95.25638672 75.53393433 95.07527344 74.71429443 94.88867188 C 30.98692057 84.95504485 -12.73883351 77.7042125 -57.56103516 75.20800781 C -67.41553518 74.57794647 -78.15576016 73.37550857 -85.3046875 65.953125 C -89.10149894 61.62004076 -90.20919541 58.35474745 -90.125 52.59130859 C -89.69751793 48.90845034 -88.12710204 45.9745277 -86.375 42.75 C -86.0126123 42.05865967 -85.65022461 41.36731934 -85.27685547 40.6550293 C -76.26956102 23.70252943 -66.66186435 5.93823321 -47.78125 -0.80078125 C -32.26816843 -4.86670989 -15.55748026 -2.50549748 0 0 Z" stroke-linecap="round" />
</g>
		<g transform="matrix(1 0 0 1 -23.93 165.79)"  >
<path style="stroke: none; stroke-width: 1; stroke-dasharray: none; stroke-linecap: butt; stroke-dashoffset: 0; stroke-linejoin: miter; stroke-miterlimit: 4; fill: rgb(109,191,72); fill-rule: nonzero; opacity: 1;" vector-effect="non-scaling-stroke"  transform=" translate(-406.4, -175.91)" d="M 0 0 C 1.14315674 0.00418945 2.28631348 0.00837891 3.46411133 0.01269531 C 87.9449279 1.02129336 176.94531661 12.00721515 336.375 84.3125 C 337.41011719 85.08078125 338.44523437 85.8490625 339.51171875 86.640625 C 347.2396128 92.42734567 354.38503864 98.65868954 361.375 105.3125 C 362.13167969 106.00472656 362.88835937 106.69695312 363.66796875 107.41015625 C 389.37320594 131.71073567 402.35795272 164.2765544 409.21337891 198.23852539 C 413.75315398 220.58406049 422.91932772 239.35990657 442.390625 252.48828125 C 460.79914365 263.74060875 480.28552828 268.6653159 501.375 272.3125 C 502.15149902 272.44817383 502.92799805 272.58384766 503.72802734 272.72363281 C 548.32768412 280.09976985 596.00247146 270.45621364 639.375 260.3125 C 640.03485901 260.15908142 640.69471802 260.00566284 641.37457275 259.84759521 C 697.11138555 246.86635089 750.18459085 226.79722613 803.30029297 205.7578125 C 805.58077872 204.85472393 807.86173772 203.95282887 810.14331055 203.05249023 C 812.04619284 202.30102857 813.94756478 201.54572324 815.84692383 200.78540039 C 824.27456882 197.45213452 829.49787393 197.49429345 838.375 199.3125 C 839.19997505 209.68293292 837.85874784 216.21739521 832.375 225 C 831.75069092 226.0530835 831.12638184 227.10616699 830.4831543 228.19116211 C 829.15418332 230.42696033 827.81231404 232.65513561 826.45849609 234.87597656 C 824.34489506 238.34418963 822.30290236 241.85151102 820.26953125 245.3671875 C 798.1347978 283.52152014 798.1347978 283.52152014 785.125 293.375 C 783.57039062 294.56802734 783.57039062 294.56802734 781.984375 295.78515625 C 774.60220038 301.0968889 766.92340218 305.2530377 758.4375 308.5 C 757.45338135 308.87745361 756.4692627 309.25490723 755.45532227 309.64379883 C 713.9797282 325.20862626 670.01512345 336.74489827 626.43310547 344.56689453 C 623.67606262 345.06445181 620.93106234 345.60189888 618.18798828 346.17138672 C 594.38412365 351.08581372 570.84514216 351.85460544 546.625 351.8125 C 545.87256893 351.81189953 545.12013786 351.81129906 544.34490585 351.81068039 C 500.99287379 351.76062851 500.99287379 351.76062851 480.875 346.6875 C 479.83166504 346.42880127 478.78833008 346.17010254 477.71337891 345.90356445 C 449.86011937 338.69735557 424.38050272 325.03583234 409.35742188 299.58886719 C 403.25256326 288.95876806 400.13460183 278.18061809 397.375 266.3125 C 390.80814028 238.62341245 383.5329105 211.91216943 365.375 189.3125 C 364.64410156 188.36890625 363.91320312 187.4253125 363.16015625 186.453125 C 312.11810755 121.88711468 204.53277662 98.02749579 126.58959961 88.59301758 C 100.74550571 85.65545101 74.75551684 84.51192841 48.79614258 83.05633545 C 42.03294013 82.67655856 35.2700988 82.29121671 28.50763321 81.89853096 C 25.38003394 81.71916483 22.25206341 81.54785661 19.12399292 81.37693787 C -8.10086387 79.83663613 -8.10086387 79.83663613 -15.8125 72.125 C -20.67921799 64.57319622 -21.60372332 55.54589678 -22.8125 46.8125 C -22.98467041 45.5759668 -23.15684082 44.33943359 -23.33422852 43.06542969 C -26.85994498 16.38640464 -26.85994498 16.38640464 -21.625 7.3125 C -15.38776616 0.3941889 -8.76189059 -0.04572942 0 0 Z" stroke-linecap="round" />
</g>
		<g transform="matrix(1 0 0 1 -210.41 288.61)"  >
<path style="stroke: none; stroke-width: 1; stroke-dasharray: none; stroke-linecap: butt; stroke-dashoffset: 0; stroke-linejoin: miter; stroke-miterlimit: 4; fill: rgb(109,191,72); fill-rule: nonzero; opacity: 1;" vector-effect="non-scaling-stroke"  transform=" translate(45.46, -107.41)" d="M 0 0 C 0.9084668 0.39396973 1.81693359 0.78793945 2.75292969 1.19384766 C 22.38658878 9.73154533 40.41465005 19.80152353 58 32 C 58.6501709 32.44907715 59.3003418 32.8981543 59.97021484 33.36083984 C 70.99507401 41.00485642 81.33185911 49.27973637 91.11767578 58.45874023 C 93.83930634 61.03123159 93.83930634 61.03123159 97 63 C 97 63.66 97 64.32 97 65 C 97.86625 65.36544922 97.86625 65.36544922 98.75 65.73828125 C 103.41405894 68.35371708 106.58020613 72.96284728 110 77 C 110.4650293 77.54350098 110.93005859 78.08700195 111.40917969 78.64697266 C 119.74592151 88.46065233 126.59660739 98.84299716 133 110 C 133.5566333 110.95060303 133.5566333 110.95060303 134.12451172 111.92041016 C 138.52362168 119.47130291 142.04623188 127.22048497 145.1875 135.375 C 145.49647217 136.17591064 145.80544434 136.97682129 146.1237793 137.80200195 C 151.26740862 151.63173892 154.90422054 165.90429003 158 180.3125 C 158.1698642 181.0977002 158.33972839 181.88290039 158.51473999 182.69189453 C 164.58526336 210.97307497 170.32905564 242.00565018 170 271 C 165.97663524 267.45382501 163.56856193 263.25188405 160.875 258.6875 C 151.98807719 243.91258255 142.20183268 229.89439846 132 216 C 131.56768066 215.41025391 131.13536133 214.82050781 130.68994141 214.21289062 C 122.63172289 203.25030809 113.94716682 192.85039326 105.0546875 182.5625 C 103.15281623 180.35770733 101.2818288 178.1344455 99.4453125 175.875 C 92.53387775 167.45597183 84.94572893 159.75739345 77.25 152.0625 C 76.70638824 151.51798187 76.16277649 150.97346375 75.60269165 150.41244507 C 70.10922895 144.92001783 64.59266184 139.49504666 58.68554688 134.44262695 C 56.27401257 132.37864141 53.95539752 130.2172214 51.625 128.0625 C 41.76671718 119.10531534 31.12621988 111.36922248 20.29638672 103.64501953 C 18.17924703 102.12840384 16.07438453 100.59645642 13.97265625 99.05859375 C -4.58682026 85.57831143 -24.40806576 73.98287847 -44.65917969 63.25048828 C -46.7263994 62.14616002 -48.77642875 61.01783624 -50.8203125 59.87109375 C -69.94511445 49.28185777 -90.44339431 41.32610702 -111 34 C -111.72896484 33.73993164 -112.45792969 33.47986328 -113.20898438 33.21191406 C -120.6230869 30.59410411 -128.1356618 28.307682 -135.6875 26.125 C -136.45497559 25.8971582 -137.22245117 25.66931641 -138.01318359 25.43457031 C -141.7587506 24.38209694 -144.28579069 23.83824842 -148 25 C -148.33965994 28.0748887 -148.33965994 28.0748887 -146.19921875 29.9453125 C -145.37035156 30.66460938 -144.54148437 31.38390625 -143.6875 32.125 C -142.76582031 32.92679688 -141.84414062 33.72859375 -140.89453125 34.5546875 C -136.30896397 38.42859454 -131.66835069 42.22646559 -127 46 C -125.76879913 47.01082767 -124.53837382 48.02260049 -123.30859375 49.03515625 C -116.00169027 55.03641477 -108.60071874 60.85367579 -101.0012207 66.47973633 C -95.53553446 70.54649495 -90.26130995 74.81833693 -85 79.14453125 C -80.42255869 82.89052326 -75.75360916 86.48093622 -71 90 C -64.82066302 94.57742664 -58.81683592 99.33068421 -52.87036133 104.20605469 C -48.51674292 107.7746822 -44.12452296 111.2856761 -39.6875 114.75 C -34.59476532 118.72910052 -29.56839131 122.77923347 -24.578125 126.88671875 C -22.06755645 128.94462419 -19.53835051 130.9765036 -17 133 C -8.99086641 139.39970327 -1.10121961 145.84936131 6.4765625 152.7578125 C 9.05082358 155.04515904 11.69289489 157.21548271 14.375 159.375 C 24.02177456 167.22889274 32.90002249 175.79449316 41.72470093 184.54946899 C 43.14559002 185.95844151 44.57041788 187.36343847 45.99536133 188.76831055 C 52.10049741 194.86581725 57.65501825 201.22964434 63 208 C 63.8579032 209.06003321 64.71593947 210.11995877 65.57421875 211.1796875 C 75.89446412 224.3422925 85.16860909 238.29363348 93.25 252.9375 C 93.70366943 253.75935791 94.15733887 254.58121582 94.62475586 255.42797852 C 96.8392712 259.53796523 98.69737608 263.49147388 100 268 C 93.87583592 267.40327099 87.98048184 266.48669167 81.98046875 265.13671875 C 81.13593643 264.94880264 80.29140411 264.76088654 79.42127991 264.567276 C 76.67448227 263.94994543 73.93063546 263.3208978 71.1875 262.6875 C 70.24491333 262.47057495 69.30232666 262.2536499 68.33117676 262.03015137 C 54.75673874 258.87784802 41.45078084 255.217626 28.25 250.75 C 27.16759537 250.3843544 27.16759537 250.3843544 26.06332397 250.01132202 C -27.552822 231.75788664 -77.43919456 204.90885407 -122 170 C -122.83917969 169.34515625 -123.67835938 168.6903125 -124.54296875 168.015625 C -131.87714245 162.22485816 -138.9657002 156.14913508 -146 150 C -146.90878906 149.2059375 -147.81757813 148.411875 -148.75390625 147.59375 C -156.01556353 141.08256967 -162.90758317 134.1965171 -169.8125 127.3125 C -170.31272675 126.81495209 -170.81295349 126.31740417 -171.32833862 125.80477905 C -177.10505467 120.05152392 -182.74288251 114.236281 -188 108 C -188.54551514 107.36118896 -189.09103027 106.72237793 -189.65307617 106.06420898 C -221.32400336 68.79476873 -249.85119619 22.20426349 -259.75 -26.3125 C -259.90702393 -27.07498047 -260.06404785 -27.83746094 -260.22583008 -28.62304688 C -261.36475437 -35.08975896 -261.37745437 -41.34712491 -258.3125 -47.25 C -231.88849926 -78.67313601 -42.86152785 -18.46996786 0 0 Z" stroke-linecap="round" />
</g>
		<g transform="matrix(1 0 0 1 60.85 -215.05)"  >
<path style="stroke: none; stroke-width: 1; stroke-dasharray: none; stroke-linecap: butt; stroke-dashoffset: 0; stroke-linejoin: miter; stroke-miterlimit: 4; fill: rgb(17,101,169); fill-rule: nonzero; opacity: 1;" vector-effect="non-scaling-stroke"  transform=" translate(-211.81, -137.75)" d="M 0 0 C 0.99725098 0.45487793 1.99450195 0.90975586 3.02197266 1.37841797 C 50.35902126 23.09845269 99.80140276 57.81207368 119.08203125 108.27734375 C 122.3472161 117.36751623 124.95117547 126.58920427 127.21484375 135.97265625 C 127.40514664 136.75696518 127.59544952 137.54127411 127.79151917 138.34934998 C 128.72859167 142.2301065 129.63915465 146.11401335 130.50415039 150.01147461 C 135.43255558 171.5005853 146.32054957 189.41195271 165.21411133 201.45336914 C 213.82433629 231.25795194 278.58142113 224.41444838 332 214 C 332.73246948 213.85753845 333.46493896 213.7150769 334.21960449 213.56829834 C 396.57007943 201.35256649 456.69579446 180.71581581 515.44140625 156.78857422 C 516.33605591 156.42573837 517.23070557 156.06290253 518.15246582 155.68907166 C 519.84670746 155.00076386 521.53916193 154.30803228 523.22937012 153.60987854 C 533.48636033 149.44567403 544.50904438 146.8151162 555.53515625 149.65234375 C 564.97798148 153.89160825 568.64793268 162.62837497 572.18066406 171.81347656 C 583.51746735 202.06747248 583.51746735 202.06747248 579.0859375 213.8984375 C 572.72347827 226.21139817 550.85012573 230.06165071 538.75 234.4375 C 537.79235748 234.78460022 536.83471497 235.13170044 535.84805298 235.48931885 C 505.4054043 246.5201807 474.90926968 257.34135048 444 267 C 442.69364719 267.41068738 441.38733256 267.82149621 440.08105469 268.23242188 C 398.08353338 281.41416561 354.90534604 293.41325962 311 298 C 310.05930664 298.10006348 309.11861328 298.20012695 308.14941406 298.30322266 C 266.94589436 302.49486556 223.27905133 301.29071514 184 287 C 183.3100293 286.75024414 182.62005859 286.50048828 181.90917969 286.24316406 C 153.88358705 275.924593 135.42613646 257.1173805 122.31640625 230.59375 C 117.75122676 220.2539149 115.70368523 209.36555073 113.3671875 198.35546875 C 108.2096823 174.0854803 98.91130446 152.68000321 82.4375 133.875 C 80 131 80 131 80 129 C 79.34 129 78.68 129 78 129 C 76.5625 127.50390625 76.5625 127.50390625 75 125.5625 C 72.85474956 122.84811762 72.85474956 122.84811762 70 121 C 70 120.34 70 119.68 70 119 C 69.46761719 118.77183594 68.93523437 118.54367187 68.38671875 118.30859375 C 65.23504224 116.58058781 62.58331005 114.32899122 59.8125 112.0625 C 46.53782971 101.45295343 31.97179663 92.96941259 17 85 C 16.36868164 84.65904297 15.73736328 84.31808594 15.08691406 83.96679688 C -23.5847624 63.19599788 -66.73921145 52.7389127 -109.390625 43.8046875 C -110.24657761 43.62538193 -111.10253021 43.44607635 -111.98442078 43.26133728 C -116.07978593 42.40624659 -120.17690063 41.56190943 -124.27856445 40.73754883 C -149.75721729 35.57200011 -149.75721729 35.57200011 -157 28 C -158.5547669 24.89046621 -158.28644437 22.43733239 -158 19 C -155.37444687 14.41766671 -152.11823582 10.96403067 -148.1875 7.5 C -147.65850098 7.0258667 -147.12950195 6.5517334 -146.58447266 6.06323242 C -145.0619172 4.70252708 -143.53115607 3.35102007 -142 2 C -141.25105469 1.32582031 -140.50210938 0.65164062 -139.73046875 -0.04296875 C -135.2658848 -4 -135.2658848 -4 -133 -4 C -133 -4.66 -133 -5.32 -133 -6 C -93.20609919 -41.62563624 -42.49397599 -19.53898072 0 0 Z" stroke-linecap="round" />
</g>
		<g transform="matrix(1 0 0 1 108.49 -312.35)"  >
<path style="stroke: none; stroke-width: 1; stroke-dasharray: none; stroke-linecap: butt; stroke-dashoffset: 0; stroke-linejoin: miter; stroke-miterlimit: 4; fill: rgb(109,191,72); fill-rule: nonzero; opacity: 1;" vector-effect="non-scaling-stroke"  transform=" translate(-186.94, -123.88)" d="M 0 0 C 2.2844529 1.70440051 4.38521969 3.51135714 6.49609375 5.42578125 C 7.305625 6.11800781 8.11515625 6.81023437 8.94921875 7.5234375 C 37.32808442 32.20260443 49.88388188 62.88888895 57.01049805 98.98266602 C 58.65794877 107.27127302 60.65007919 114.83071048 64.49609375 122.42578125 C 64.98722656 123.40675781 65.47835937 124.38773438 65.984375 125.3984375 C 78.25072154 148.0867873 100.12487592 161.56836146 124.19140625 168.92578125 C 132.20745976 171.25029076 140.26738288 173.04351642 148.49609375 174.42578125 C 149.16479492 174.5429248 149.83349609 174.66006836 150.52246094 174.78076172 C 218.18057474 186.09072461 287.82078654 159.57476988 352.05175781 141.64355469 C 359.52920446 139.55641347 367.01093052 137.48509712 374.49609375 135.42578125 C 375.61133423 135.11769531 376.72657471 134.80960938 377.87561035 134.4921875 C 380.98852894 133.63651146 384.10475715 132.79435236 387.22265625 131.95703125 C 388.10996429 131.71182739 388.99727234 131.46662354 389.91146851 131.21398926 C 399.49082339 128.67700265 409.30973193 126.75969271 418.49609375 131.42578125 C 429.58283877 139.30968882 437.93127672 151.22590689 446.05859375 161.98828125 C 446.57147949 162.66705322 447.08436523 163.3458252 447.61279297 164.04516602 C 448.09119629 164.68768311 448.56959961 165.3302002 449.0625 165.9921875 C 449.48474854 166.55881104 449.90699707 167.12543457 450.34204102 167.70922852 C 453.47529339 172.369668 455.14620545 177.01123062 454.0625 182.703125 C 452.14474271 189.21483194 449.3467783 192.80341158 443.359375 196.2109375 C 436.50470757 199.56247105 429.11100215 201.69196209 421.87109375 204.05078125 C 420.2540522 204.58189173 418.63719261 205.11355651 417.02050781 205.64575195 C 414.55545689 206.45713393 412.09026388 207.26804867 409.62426758 208.07655334 C 404.59920498 209.72551968 399.58583929 211.40487826 394.58203125 213.1171875 C 377.40533734 218.97751127 360.11969011 224.19255249 342.58929443 228.8671875 C 340.48272084 229.42934996 338.37735798 229.99590571 336.27197266 230.5625 C 311.58642275 237.17445829 286.68436608 242.14602534 261.49609375 246.42578125 C 260.62009521 246.57464783 259.74409668 246.7235144 258.84155273 246.87689209 C 201.47509458 256.57141387 133.23903832 264.26367883 82.7734375 228.49609375 C 58.2122709 209.59120818 47.36931146 184.61769758 41.55859375 155.05078125 C 34.64704029 120.04935931 18.54036864 90.02733337 -10.37890625 68.17578125 C -11.11359131 67.61785889 -11.84827637 67.05993652 -12.60522461 66.48510742 C -21.69154513 59.6720599 -31.26390247 53.66138042 -40.91796875 47.6953125 C -41.63525146 47.25082764 -42.35253418 46.80634277 -43.09155273 46.34838867 C -44.44200226 45.5138765 -45.79545801 44.68419936 -47.15258789 43.8605957 C -50.15463438 42.01436268 -52.81302357 40.16585077 -55.5234375 37.88671875 C -58.1575616 35.71175389 -60.73879766 34.18822031 -63.71923828 32.55566406 C -67.05500278 30.44377376 -69.70230286 27.61850414 -72.44140625 24.80078125 C -73.02986328 24.21554688 -73.61832031 23.6303125 -74.22460938 23.02734375 C -78.50390625 18.69337525 -78.50390625 18.69337525 -78.50390625 16.42578125 C -79.16390625 16.42578125 -79.82390625 16.42578125 -80.50390625 16.42578125 C -80.50390625 15.43578125 -80.50390625 14.44578125 -80.50390625 13.42578125 C -77.96253595 10.94519733 -74.93384614 9.04689025 -72.00390625 7.05078125 C -71.14619629 6.46514404 -70.28848633 5.87950684 -69.40478516 5.27612305 C -61.71940269 0.22518122 -54.45970237 -2.56623499 -45.50390625 -4.57421875 C -44.80450928 -4.75170654 -44.1051123 -4.92919434 -43.38452148 -5.11206055 C -28.77412719 -8.69327413 -12.9683969 -8.15329789 0 0 Z" stroke-linecap="round" />
</g>
		<g transform="matrix(1 0 0 1 119.11 -380.22)"  >
<path style="stroke: none; stroke-width: 1; stroke-dasharray: none; stroke-linecap: butt; stroke-dashoffset: 0; stroke-linejoin: miter; stroke-miterlimit: 4; fill: rgb(109,191,72); fill-rule: nonzero; opacity: 1;" vector-effect="non-scaling-stroke"  transform=" translate(-149.88, -73.96)" d="M 0 0 C 0.75603516 -0.03738281 1.51207031 -0.07476562 2.29101562 -0.11328125 C 6.95682164 -0.18612124 9.90570702 0.32829364 13.42456055 3.734375 C 16.1566143 6.96382113 18.38176685 10.48437993 20.625 14.0625 C 36.00639497 37.73987883 57.5974376 50.77515187 84.9609375 56.75390625 C 99.5843606 59.80917824 113.48037035 61.63333163 128.4375 61.6875 C 129.13969666 61.69011841 129.84189331 61.69273682 130.56536865 61.69543457 C 154.44009713 61.70475829 178.15822836 58.58549896 201.78198242 55.39025879 C 233.15709225 51.16137195 261.91608463 54.48361222 287.91210938 74.09790039 C 290.57295776 76.15690896 293.1918297 78.26502443 295.8125 80.375 C 297.22789062 81.46554688 297.22789062 81.46554688 298.671875 82.578125 C 308.86443237 90.47886473 308.86443237 90.47886473 311.8125 96.375 C 312.08296812 99.95870253 312.07188588 102.67790045 310.8125 106.0625 C 306.31875697 111.25839037 298.81658518 113.24683757 292.45703125 115.3984375 C 291.68227448 115.66514755 290.9075177 115.9318576 290.10928345 116.20664978 C 287.61690595 117.06162202 285.12144644 117.90698776 282.625 118.75 C 281.76681671 119.04079437 280.90863342 119.33158875 280.02444458 119.63119507 C 243.39739701 132.02451193 206.25747153 139.82155495 167.97576904 145.07751465 C 165.92743659 145.35919431 163.8799525 145.6464383 161.83251953 145.93457031 C 127.27472326 150.70022027 90.51156645 147.84587543 58.8125 132.375 C 57.91660156 131.97667969 57.02070312 131.57835937 56.09765625 131.16796875 C 45.78977324 126.44004186 34.48722989 118.76476683 26.8125 110.375 C 26.8125 109.715 26.8125 109.055 26.8125 108.375 C 26.1525 108.375 25.4925 108.375 24.8125 108.375 C 21.89048483 104.90216817 19.39007041 101.10754732 16.8125 97.375 C 16.21824219 96.54613281 15.62398438 95.71726562 15.01171875 94.86328125 C 1.89087863 75.64954526 -15.49435084 33.43820699 -11.6640625 10.19921875 C -11.38304687 9.16410156 -11.10203125 8.12898437 -10.8125 7.0625 C -10.39871094 5.49048828 -10.39871094 5.49048828 -9.9765625 3.88671875 C -8.39592827 -1.14470604 -4.61683927 0.08443098 0 0 Z" stroke-linecap="round" />
</g>
		<g transform="matrix(1 0 0 1 157.04 401.31)"  >
<path style="stroke: none; stroke-width: 1; stroke-dasharray: none; stroke-linecap: butt; stroke-dashoffset: 0; stroke-linejoin: miter; stroke-miterlimit: 4; fill: rgb(109,191,72); fill-rule: nonzero; opacity: 1;" vector-effect="non-scaling-stroke"  transform=" translate(102.69, -52.36)" d="M 0 0 C 0.79656006 0.06155273 1.59312012 0.12310547 2.41381836 0.18652344 C 10.30615627 0.97764476 16.34513804 3.64211218 21.8125 9.5 C 22.4828125 10.20640625 23.153125 10.9128125 23.84375 11.640625 C 24.3284375 12.17171875 24.813125 12.7028125 25.3125 13.25 C 20.81060374 26.52482229 3.76120975 33.09759305 -7.6875 39.25 C -9.12391846 40.0229541 -9.12391846 40.0229541 -10.58935547 40.81152344 C -17.24678851 44.37453061 -23.94833577 47.84429117 -30.6875 51.25 C -31.47237793 51.64783691 -32.25725586 52.04567383 -33.06591797 52.45556641 C -57.90931399 64.93405859 -84.1019749 74.27722593 -110.6875 82.25 C -111.74195313 82.56775391 -112.79640625 82.88550781 -113.8828125 83.21289062 C -132.85013762 88.83692307 -152.23532256 92.65976798 -171.60745239 96.58956909 C -177.5551955 97.80026536 -183.48710322 99.0706243 -189.4140625 100.37890625 C -191.67091018 100.86978835 -193.92812621 101.35892814 -196.18554688 101.84716797 C -197.5693618 102.14991719 -198.95194405 102.45837607 -200.33300781 102.7734375 C -210.6072628 105.11245911 -220.22117669 105.59008717 -230.6875 105.25 C -226.68171719 98.82329434 -222.24690238 93.26307375 -217 87.8125 C -215.93736938 86.7002002 -215.93736938 86.7002002 -214.85327148 85.56542969 C -180.49485632 49.87668415 -135.76682452 26.49104784 -88.6875 12.25 C -87.7893457 11.97462402 -86.89119141 11.69924805 -85.96582031 11.41552734 C -58.41972633 3.07934166 -28.80817622 -2.54993341 0 0 Z" stroke-linecap="round" />
</g>
</g>
</g>
</svg>