<?xml version="1.0" encoding="UTF-8"?>
<svg version="1.1" xmlns="http://www.w3.org/2000/svg" width="100%" height="100%" viewBox="0 0 663 585" preserveAspectRatio="xMidYMid meet">
	<rect width="100%" height="100%" fill="#FFFFFF"/>
	<path d="M0 0 C0.73734375 0.00773438 1.4746875 0.01546875 2.234375 0.0234375 C3.34039062 0.01183594 3.34039062 0.01183594 4.46875 0 C9.9810554 0.0201179 9.9810554 0.0201179 12.234375 2.2734375 C12.43269016 4.82231874 12.50715762 7.26253971 12.49316406 9.8125 C12.4966687 10.58986511 12.50017334 11.36723022 12.50378418 12.16815186 C12.51260706 14.74500382 12.50675045 17.3215826 12.5 19.8984375 C12.50134649 21.68440809 12.50328689 23.47037832 12.50579834 25.25634766 C12.50875035 29.00231409 12.50444949 32.74818525 12.49511719 36.49414062 C12.48372259 41.30306583 12.49028166 46.11176781 12.50226212 50.92068481 C12.50947864 54.60947358 12.50719375 58.29820917 12.50200653 61.98699951 C12.50066946 63.76047797 12.50231976 65.53396121 12.50696564 67.30743408 C12.51202749 69.78321175 12.50432563 72.2586246 12.49316406 74.734375 C12.49721252 75.47210144 12.50126099 76.20982788 12.50543213 76.96990967 C12.46290378 82.04490872 12.46290378 82.04490872 10.234375 84.2734375 C7.08203125 84.64453125 7.08203125 84.64453125 3.296875 84.7109375 C1.42708984 84.77087891 1.42708984 84.77087891 -0.48046875 84.83203125 C-3.765625 84.2734375 -3.765625 84.2734375 -5.70703125 81.87109375 C-6.765625 79.2734375 -6.765625 79.2734375 -6.765625 77.2734375 C-7.79623047 78.01400391 -7.79623047 78.01400391 -8.84765625 78.76953125 C-9.74871094 79.41019531 -10.64976562 80.05085938 -11.578125 80.7109375 C-12.47144531 81.34902344 -13.36476562 81.98710937 -14.28515625 82.64453125 C-18.98656212 85.73191117 -23.31698864 85.83963616 -28.765625 85.2734375 C-36.97965345 83.42056039 -43.30350746 79.7007485 -48.765625 73.2734375 C-55.04463606 63.26908016 -56.36409178 52.78419306 -54.1875 41.1953125 C-51.66636492 33.17351907 -46.57586058 26.17802065 -39.3203125 21.796875 C-32.68233358 18.75172956 -26.07243261 17.2671107 -18.765625 18.2734375 C-14.87738321 19.99868386 -11.76337288 22.27568962 -8.765625 25.2734375 C-8.74580566 24.58717285 -8.72598633 23.9009082 -8.70556641 23.19384766 C-8.61051555 20.09497971 -8.50075653 16.99680456 -8.390625 13.8984375 C-8.3596875 12.81820312 -8.32875 11.73796875 -8.296875 10.625 C-8.25820312 9.59375 -8.21953125 8.5625 -8.1796875 7.5 C-8.1482666 6.54689941 -8.1168457 5.59379883 -8.08447266 4.61181641 C-7.40555913 -0.36722934 -4.34040915 0.01584091 0 0 Z M-33.015625 40.6484375 C-36.29708181 45.57062272 -37.37180258 49.31269131 -36.765625 55.2734375 C-35.3354836 59.61261653 -33.45306849 62.61872941 -30.140625 65.7734375 C-25.55975602 67.80937927 -21.70194602 68.06935897 -16.765625 67.2734375 C-12.34077622 65.06101311 -9.57085843 62.32544134 -6.765625 58.2734375 C-5.07383034 53.19805353 -5.20190633 48.95379314 -7.390625 44.0859375 C-9.54089601 40.21994502 -11.69647396 38.19284837 -15.765625 36.2734375 C-22.85309061 34.44113041 -27.79875285 35.14173912 -33.015625 40.6484375 Z " fill="#2A5A8F" transform="translate(187.765625,190.7265625)"/>
	<path d="M0 0 C2.5 2.125 2.5 2.125 4 4 C4 4.66 4 5.32 4 6 C4.66 6 5.32 6 6 6 C6.185625 4.6078125 6.185625 4.6078125 6.375 3.1875 C7 0 7 0 9 -3 C11.75 -3.36328125 11.75 -3.36328125 15 -3.3125 C16.60875 -3.30669922 16.60875 -3.30669922 18.25 -3.30078125 C21 -3 21 -3 23 -1 C23.25396729 1.54284668 23.25396729 1.54284668 23.25878906 4.79492188 C23.26509338 6.0095813 23.27139771 7.22424072 23.27789307 8.47570801 C23.2738446 9.79341187 23.26979614 11.11111572 23.265625 12.46875 C23.26697176 13.82873606 23.26891239 15.18872165 23.27142334 16.54870605 C23.27437409 19.40019307 23.27007864 22.25155487 23.26074219 25.10302734 C23.24934754 28.76182777 23.25590729 32.4203348 23.26788712 36.07912445 C23.27510712 38.88777892 23.27281717 41.69636359 23.26763153 44.50502014 C23.26564461 46.51144602 23.27172863 48.5178746 23.27789307 50.52429199 C23.26843658 52.34628113 23.26843658 52.34628113 23.25878906 54.20507812 C23.25719788 55.27826294 23.25560669 56.35144775 23.25396729 57.45715332 C23 60 23 60 21 62 C17.84765625 62.37109375 17.84765625 62.37109375 14.0625 62.4375 C12.19271484 62.49744141 12.19271484 62.49744141 10.28515625 62.55859375 C7 62 7 62 5.05859375 59.59765625 C4 57 4 57 4 55 C3.31292969 55.49371094 2.62585938 55.98742187 1.91796875 56.49609375 C1.01691406 57.13675781 0.11585938 57.77742188 -0.8125 58.4375 C-2.15248047 59.39462891 -2.15248047 59.39462891 -3.51953125 60.37109375 C-8.21621668 63.45537379 -12.55533956 63.57398529 -18 63 C-27.23140687 60.79825641 -35.37082996 56.19198151 -40.875 48.3125 C-46.14307943 38.8372738 -47.12486723 28.7299224 -44.27734375 18.37109375 C-40.77589025 8.44272992 -34.83605469 2.9596448 -25.6484375 -1.87109375 C-17.01082985 -5.55290586 -7.80783397 -5.28917785 0 0 Z M-23 17 C-26.58267048 21.4808611 -27.61775951 26.24077303 -27.31640625 31.8984375 C-26.54864242 36.99790588 -24.02216537 40.92662725 -19.9375 44.08203125 C-15.80546624 46.03974886 -11.42235327 45.70520387 -7 45 C-2.13891081 42.70203056 0.70203056 39.86108919 3 35 C3.77761132 29.67574287 3.70046343 25.42686995 1.3125 20.5625 C-3.03286208 15.74736905 -6.10096159 13.27375 -12.65625 12.84765625 C-16.76758042 13.11489273 -19.82147269 14.3882981 -23 17 Z " fill="#2A5A8F" transform="translate(437,213)"/>
	<path d="M0 0 C2.5 2.125 2.5 2.125 4 4 C4 4.66 4 5.32 4 6 C4.66 6 5.32 6 6 6 C6.185625 4.6078125 6.185625 4.6078125 6.375 3.1875 C7 0 7 0 9 -3 C12.00390625 -3.328125 12.00390625 -3.328125 15.5625 -3.25 C17.32787109 -3.22679687 17.32787109 -3.22679687 19.12890625 -3.203125 C22 -3 22 -3 23 -2 C23.10445557 -0.07782922 23.13855137 1.84819819 23.14526367 3.77319336 C23.15164352 5.00794907 23.15802338 6.24270477 23.16459656 7.51487732 C23.16612512 8.87319907 23.16723914 10.23152134 23.16796875 11.58984375 C23.1711797 12.97367895 23.17454365 14.3575138 23.17805481 15.74134827 C23.18405224 18.64585151 23.18589409 21.55032498 23.18530273 24.45483398 C23.18520109 28.18202146 23.19885272 31.90901853 23.21607494 35.63616085 C23.2271778 38.49541608 23.22922247 41.35462503 23.22869301 44.21389961 C23.22987574 45.58825906 23.23431388 46.96261961 23.24202538 48.33695793 C23.25178998 50.25708452 23.24769215 52.17726662 23.24291992 54.09741211 C23.24434494 55.19137802 23.24576996 56.28534393 23.24723816 57.41246033 C23 60 23 60 21 62 C17.84765625 62.37109375 17.84765625 62.37109375 14.0625 62.4375 C12.19271484 62.49744141 12.19271484 62.49744141 10.28515625 62.55859375 C7 62 7 62 5.05859375 59.59765625 C4 57 4 57 4 55 C3.31292969 55.49371094 2.62585938 55.98742187 1.91796875 56.49609375 C1.01691406 57.13675781 0.11585938 57.77742188 -0.8125 58.4375 C-2.15248047 59.39462891 -2.15248047 59.39462891 -3.51953125 60.37109375 C-8.21203638 63.45262861 -12.55899073 63.58091979 -18 63 C-28.56612742 60.37720241 -36.11155385 55.44398681 -41.81640625 46.15234375 C-46.22466543 38.13600446 -46.79772092 29.19213964 -44.7265625 20.3828125 C-41.72811308 10.54918806 -36.36157174 4.26382065 -27.4765625 -0.7421875 C-18.29871446 -5.40349202 -8.63027972 -5.84631852 0 0 Z M-23.8125 19 C-27.36172238 23.86750497 -27.55963461 28.16381046 -27 34 C-25.41190649 38.2084478 -23.43857314 41.09870392 -20 44 C-14.41759548 45.86080151 -8.94868031 45.93825348 -3.625 43.375 C0.2927141 39.83040153 2.51624806 36.74150699 3.9375 31.625 C4.029434 26.29282784 2.91327598 22.38900947 -0.4453125 18.1953125 C-4.20784497 14.53778094 -7.61910569 13.06742912 -12.86328125 12.8359375 C-17.72706887 13.20939103 -20.70905762 15.45447181 -23.8125 19 Z " fill="#2A5A8F" transform="translate(253,213)"/>
	<path d="M0 0 C7.50695723 5.00463816 10.7105784 11.90543909 12.57489014 20.5402832 C13.22927436 24.32659826 13.28622751 28.03281466 13.265625 31.8671875 C13.26849518 33.06929367 13.26849518 33.06929367 13.27142334 34.29568481 C13.27277261 35.97121499 13.26916509 37.64675608 13.26074219 39.32226562 C13.24993874 41.88955836 13.26072339 44.45616492 13.2734375 47.0234375 C13.27211734 48.65885571 13.26955793 50.29427349 13.265625 51.9296875 C13.26967346 52.69529999 13.27372192 53.46091248 13.27789307 54.24972534 C13.24434234 58.03618782 13.15230864 59.77153704 11 63 C8.24458159 63.27613568 5.74908898 63.37257625 3 63.3125 C1.89398438 63.31733398 1.89398438 63.31733398 0.765625 63.32226562 C-4.73292051 63.26707949 -4.73292051 63.26707949 -7 61 C-7.18499476 58.12060655 -7.25267546 55.32895442 -7.23828125 52.44921875 C-7.25370389 50.70116414 -7.27000774 48.95311712 -7.28710938 47.20507812 C-7.30355417 44.44652589 -7.31250264 41.68852878 -7.30541992 38.92993164 C-7.30279743 36.26905432 -7.33094202 33.6098699 -7.36328125 30.94921875 C-7.35307449 30.12822189 -7.34286774 29.30722504 -7.33235168 28.46134949 C-7.405147 24.18905106 -7.6226408 22.4870442 -10.32495117 18.99926758 C-13.68592511 16.48735596 -15.82221991 16.07329439 -20 16 C-23.30675012 16.46238809 -23.30675012 16.46238809 -26 18 C-28.47421598 22.40311392 -28.31132548 26.82035128 -28.34375 31.73046875 C-28.3583728 32.56210037 -28.37299561 33.39373199 -28.38806152 34.25056458 C-28.45017983 37.79636647 -28.49006858 41.34233588 -28.53173828 44.88842773 C-28.56538455 47.48179657 -28.61049553 50.07478995 -28.65625 52.66796875 C-28.6615271 53.47316452 -28.6668042 54.27836029 -28.67224121 55.10795593 C-28.77433749 60.77433749 -28.77433749 60.77433749 -31 63 C-33.70922801 63.19852102 -36.29303179 63.27839477 -39 63.25 C-39.73734375 63.25773437 -40.4746875 63.26546875 -41.234375 63.2734375 C-46.7466804 63.2533196 -46.7466804 63.2533196 -49 61 C-49.25396729 58.45715332 -49.25396729 58.45715332 -49.25878906 55.20507812 C-49.26509338 53.9904187 -49.27139771 52.77575928 -49.27789307 51.52429199 C-49.2738446 50.20658813 -49.26979614 48.88888428 -49.265625 47.53125 C-49.26697176 46.17126394 -49.26891239 44.81127835 -49.27142334 43.45129395 C-49.27437409 40.59980693 -49.27007864 37.74844513 -49.26074219 34.89697266 C-49.24934754 31.23817223 -49.25590729 27.5796652 -49.26788712 23.92087555 C-49.27510712 21.11222108 -49.27281717 18.30363641 -49.26763153 15.49497986 C-49.26564461 13.48855398 -49.27172863 11.4821254 -49.27789307 9.47570801 C-49.27158875 8.26104858 -49.26528442 7.04638916 -49.25878906 5.79492188 C-49.25719788 4.72173706 -49.25560669 3.64855225 -49.25396729 2.54284668 C-49 0 -49 0 -47 -2 C-44.1796875 -2.1953125 -44.1796875 -2.1953125 -40.875 -2.125 C-39.77929688 -2.10695312 -38.68359375 -2.08890625 -37.5546875 -2.0703125 C-36.71164062 -2.04710937 -35.86859375 -2.02390625 -35 -2 C-33.68 0.97 -32.36 3.94 -31 7 C-30.154375 5.906875 -29.30875 4.81375 -28.4375 3.6875 C-21.01731871 -4.85695118 -9.60003721 -5.12140214 0 0 Z " fill="#2C5C90" transform="translate(333,212)"/>
	<path d="M0 0 C7.46667393 5.37251497 13.06073939 12.32728847 14.65234375 21.55859375 C14.88799048 25.24185459 15.06648619 28.88612476 14.65234375 32.55859375 C12.28601367 34.92492383 11.78598219 34.81966611 8.56982422 34.87744141 C7.30874344 34.90724594 7.30874344 34.90724594 6.02218628 34.93765259 C5.11381012 34.9492038 4.20543396 34.960755 3.26953125 34.97265625 C2.34012726 34.9920224 1.41072327 35.01138855 0.45315552 35.03134155 C-2.52202105 35.0912306 -5.49723613 35.13755985 -8.47265625 35.18359375 C-10.48699625 35.22176496 -12.50131979 35.26081618 -14.515625 35.30078125 C-19.459502 35.39693975 -24.40345542 35.48093615 -29.34765625 35.55859375 C-27.72163 39.96271865 -26.47513076 42.09967276 -22.34765625 44.55859375 C-15.94038693 46.3874648 -10.30074147 45.41557122 -4.34765625 42.55859375 C-3.68765625 41.89859375 -3.02765625 41.23859375 -2.34765625 40.55859375 C1.34145452 40.55859375 3.33787672 41.89898806 5.96484375 44.30859375 C7.79016379 46.30503755 8.6177148 47.45204312 9.46484375 50.05859375 C7.9630637 54.67945545 3.95461197 57.29794371 -0.1953125 59.5703125 C-9.03113534 63.55128763 -17.8308762 63.57774564 -26.9375 60.5234375 C-35.64023648 57.03952192 -42.936549 51.09194943 -46.73828125 42.3671875 C-50.30094003 31.54122087 -50.26248871 22.78863927 -45.31640625 12.390625 C-40.64969312 4.23964294 -34.13437222 -0.92175811 -25.2109375 -3.78515625 C-16.27678865 -5.83281929 -7.82593799 -4.80494363 0 0 Z M-29.34765625 18.55859375 C-29.34765625 19.21859375 -29.34765625 19.87859375 -29.34765625 20.55859375 C-21.09765625 20.55859375 -12.84765625 20.55859375 -4.34765625 20.55859375 C-6.51912744 15.12991577 -7.26429228 14.05406334 -12.34765625 11.55859375 C-19.87544306 9.8053569 -24.55972035 12.79219683 -29.34765625 18.55859375 Z " fill="#295A8F" transform="translate(111.34765625,213.44140625)"/>
	<path d="M0 0 C19.68770962 0.14602995 40.81269713 5.07284229 55.4375 18.875 C59.49978863 23.24679633 61.27772197 27.67439588 62.8125 33.375 C64.11089885 37.87205852 65.6287868 40.41062327 69.4375 43.3125 C87.82528146 51.8830761 110.92179421 41.63514977 128.4375 35.3125 C132.79849635 33.71492531 137.13437669 32.06064385 141.4375 30.3125 C142.4275 31.3025 142.4275 31.3025 143.4375 32.3125 C143.3359375 34.7734375 143.3359375 34.7734375 142.8125 37.6875 C142.65523437 38.64398438 142.49796875 39.60046875 142.3359375 40.5859375 C141.22833295 43.94727652 140.25778388 45.16349775 137.4375 47.3125 C134.67808426 48.67974404 131.83919773 49.72528281 128.9375 50.75 C128.10959961 51.0485791 127.28169922 51.3471582 126.42871094 51.65478516 C108.76320608 57.8473307 86.55026252 65.11387711 68.4375 57.3125 C61.87713065 53.60446515 60.08820075 46.62715171 58.125 39.75 C55.61730088 32.17410897 50.77360154 27.73156145 43.8125 24.0625 C29.37347649 17.43711265 14.93738385 15.15979591 -0.79711914 14.74145508 C-1.62848389 14.7133374 -2.45984863 14.68521973 -3.31640625 14.65625 C-4.06220947 14.63755859 -4.8080127 14.61886719 -5.57641602 14.59960938 C-7.5625 14.3125 -7.5625 14.3125 -10.5625 12.3125 C-10.28038123 10.6858152 -9.98647625 9.06117104 -9.6875 7.4375 C-9.52507812 6.53257813 -9.36265625 5.62765625 -9.1953125 4.6953125 C-7.81391765 -0.506236 -4.7710221 0.01517823 0 0 Z " fill="#2C5C90" transform="translate(158.5625,58.6875)"/>
	<path d="M0 0 C2.77245014 -0.13487595 5.53837088 -0.23400807 8.3125 -0.3125 C9.49102539 -0.3753418 9.49102539 -0.3753418 10.69335938 -0.43945312 C11.45068359 -0.45556641 12.20800781 -0.47167969 12.98828125 -0.48828125 C13.68477783 -0.51446533 14.38127441 -0.54064941 15.09887695 -0.56762695 C17 0 17 0 18.609375 2.1237793 C20.10070331 5.20828401 21.21622301 8.24474687 22.26171875 11.5078125 C22.65810547 12.74144531 23.05449219 13.97507813 23.46289062 15.24609375 C23.66374268 15.88272949 23.86459473 16.51936523 24.0715332 17.17529297 C24.68865976 19.12867098 25.31720578 21.07810376 25.94726562 23.02734375 C29 32.60160099 29 32.60160099 29 36 C29.66 36 30.32 36 31 36 C31.09724365 35.42967041 31.1944873 34.85934082 31.29467773 34.27172852 C32.63935261 26.9578317 34.75777554 20.00009929 37.0625 12.9375 C37.60874023 11.22916992 37.60874023 11.22916992 38.16601562 9.48632812 C40.86259232 1.13740768 40.86259232 1.13740768 42 0 C43.41570123 -0.08651611 44.835595 -0.10704904 46.25390625 -0.09765625 C47.53491211 -0.09282227 47.53491211 -0.09282227 48.84179688 -0.08789062 C49.73962891 -0.07951172 50.63746094 -0.07113281 51.5625 -0.0625 C52.46419922 -0.05798828 53.36589844 -0.05347656 54.29492188 -0.04882812 C56.53001314 -0.03700225 58.76497437 -0.0205222 61 0 C62.16713311 3.50139932 61.83844891 4.05953918 60.46459961 7.34106445 C59.92294411 8.65437492 59.92294411 8.65437492 59.37034607 9.99421692 C58.9684053 10.94100815 58.56646454 11.88779938 58.15234375 12.86328125 C57.53897911 14.33863594 57.53897911 14.33863594 56.91322327 15.84379578 C55.59688122 19.00383182 54.26732017 22.15811556 52.9375 25.3125 C52.06750143 27.39612635 51.19835105 29.48010708 50.33007812 31.56445312 C48.26762937 36.50851434 46.19008464 41.44601685 44.10467529 46.38043213 C43.10034305 48.76205186 42.10371384 51.14670739 41.10986328 53.53271484 C40.5747826 54.80706624 40.03948491 56.08132656 39.50390625 57.35546875 C39.05990479 58.41789795 38.61590332 59.48032715 38.15844727 60.57495117 C37 63 37 63 35 65 C32.72265625 65.30078125 32.72265625 65.30078125 30.0625 65.3125 C29.18722656 65.32925781 28.31195312 65.34601563 27.41015625 65.36328125 C24.37279742 64.90546217 23.90410545 64.39672175 22 62 C20.81340401 59.44886416 19.73496133 56.93005806 18.70703125 54.31640625 C18.3994841 53.55263168 18.09193695 52.78885712 17.77507019 52.00193787 C16.77985175 49.52512712 15.79572749 47.04409263 14.8125 44.5625 C14.13660157 42.86892747 13.46016877 41.1755681 12.78320312 39.48242188 C11.77888171 36.96948109 10.775423 34.45622198 9.77542114 31.94155884 C7.95606063 27.36961922 6.10447832 22.81439044 4.19921875 18.27734375 C3.62627075 16.90050415 3.62627075 16.90050415 3.04174805 15.49584961 C2.36920643 13.88455526 1.68769754 12.27696099 0.99536133 10.67407227 C-0.62726213 6.73744666 -1.41146686 4.1060854 0 0 Z " fill="#2B5B90" transform="translate(3,210)"/>
	<path d="M0 0 C0.78310547 0.18006592 1.56621094 0.36013184 2.37304688 0.5456543 C13.52561387 3.21410885 23.4149655 6.90328036 32.3125 14.3125 C33.19035156 15.04339844 33.19035156 15.04339844 34.0859375 15.7890625 C38.82682294 20.48181713 40.16548229 26.5209869 41.84375 32.7890625 C44.01275079 37.99235694 47.16061769 40.37318629 52.265625 42.6015625 C71.88379587 47.1791357 94.49827671 38.41356718 112.21875 30.62109375 C115.2571141 29.33592712 117.06879365 28.75643605 120.3125 29.3125 C122.4397776 32.5034164 122.64631412 34.51409774 122.87109375 38.27734375 C121.96075735 41.59402393 120.18959607 42.47014901 117.3125 44.3125 C113.93886225 45.83481918 110.4903233 47.08522847 107 48.3125 C106.02611328 48.66062744 105.05222656 49.00875488 104.04882812 49.36743164 C88.04133411 54.97872571 65.63940903 62.49826155 48.9375 55.6875 C43.86744232 53.16325852 40.87869879 48.78461686 38.90625 43.65625 C37.8125 39.8125 37.8125 39.8125 36.71875 35.96875 C33.64673928 27.98152214 27.81780355 23.96159634 20.3125 20.3125 C8.80831538 15.51570217 -3.5341819 13.01889361 -15.96142578 12.15429688 C-21.30201483 11.73561587 -21.30201483 11.73561587 -23.328125 9.51171875 C-23.80751432 6.57806452 -23.09685401 5.55476837 -21.4375 3.125 C-20.74914062 2.08279297 -20.74914062 2.08279297 -20.046875 1.01953125 C-15.69061489 -4.45082986 -5.91589436 -1.37149378 0 0 Z " fill="#2C5B90" transform="translate(179.6875,38.6875)"/>
	<path d="M0 0 C0 6.27 0 12.54 0 19 C3.80859375 18.95117188 3.80859375 18.95117188 7.6171875 18.90234375 C10 19 10 19 12 20 C12.05383848 22.45862401 12.09359038 24.9160755 12.125 27.375 C12.14175781 28.07367188 12.15851563 28.77234375 12.17578125 29.4921875 C12.19344267 31.32897486 12.10303261 33.16601963 12 35 C10 37 10 37 7.6171875 37.1953125 C6.25980469 37.16050781 6.25980469 37.16050781 4.875 37.125 C3.96492188 37.10695312 3.05484375 37.08890625 2.1171875 37.0703125 C1.41851562 37.04710937 0.71984375 37.02390625 0 37 C0.01047363 38.29212402 0.02094727 39.58424805 0.03173828 40.91552734 C0.06786719 45.69756309 0.09087451 50.47958673 0.10986328 55.26171875 C0.11993712 57.33367947 0.13359666 59.40562593 0.15087891 61.47753906 C0.17506664 64.45120764 0.18646908 67.4246887 0.1953125 70.3984375 C0.20563507 71.32868744 0.21595764 72.25893738 0.22659302 73.21737671 C0.22674408 74.07811798 0.22689514 74.93885925 0.22705078 75.82568359 C0.231492 76.58513275 0.23593323 77.34458191 0.24050903 78.12704468 C0 80 0 80 -2 82 C-4.70922801 82.19852102 -7.29303179 82.27839477 -10 82.25 C-10.73734375 82.25773437 -11.4746875 82.26546875 -12.234375 82.2734375 C-17.7466804 82.2533196 -17.7466804 82.2533196 -20 80 C-20.24050903 78.12704468 -20.24050903 78.12704468 -20.22705078 75.82568359 C-20.22682419 74.53457169 -20.22682419 74.53457169 -20.22659302 73.21737671 C-20.21627045 72.28712677 -20.20594788 71.35687683 -20.1953125 70.3984375 C-20.1924826 69.44683746 -20.18965271 68.49523743 -20.18673706 67.51480103 C-20.17551989 64.46807408 -20.15041263 61.42163846 -20.125 58.375 C-20.11497218 56.31250424 -20.10584599 54.25000388 -20.09765625 52.1875 C-20.07557554 47.12488733 -20.0410353 42.0624931 -20 37 C-20.969375 37.020625 -21.93875 37.04125 -22.9375 37.0625 C-26 37 -26 37 -27 36 C-27.09981214 33.3226862 -27.13879875 30.67695825 -27.125 28 C-27.12886719 27.24976563 -27.13273437 26.49953125 -27.13671875 25.7265625 C-27.12661053 20.12661053 -27.12661053 20.12661053 -26 19 C-24.00041636 18.95919217 -21.99954746 18.95745644 -20 19 C-20.03480469 18.09636719 -20.06960938 17.19273437 -20.10546875 16.26171875 C-20.13253906 15.08222656 -20.15960938 13.90273437 -20.1875 12.6875 C-20.22230469 11.51574219 -20.25710938 10.34398437 -20.29296875 9.13671875 C-20 6 -20 6 -18.85546875 4.22265625 C-16.38194926 2.59273709 -13.93415119 1.68871885 -11.125 0.75 C-10.09632813 0.39421875 -9.06765625 0.0384375 -8.0078125 -0.328125 C-5 -1 -5 -1 0 0 Z " fill="#2A5A8F" transform="translate(377,193)"/>
	<path d="M0 0 C0.8360376 0.04930664 1.6720752 0.09861328 2.53344727 0.14941406 C21.27010554 1.48189167 41.57455792 5.51096569 55.6640625 18.8671875 C60.15961143 24.08967625 61.79974993 29.40126352 63.609375 35.97265625 C64.83782849 39.71339782 66.32570195 41.64006801 69.5625 43.875 C87.3202465 51.19318504 108.62028497 42.89534034 125.34082031 36.51757812 C126.68418457 36.00614258 126.68418457 36.00614258 128.0546875 35.484375 C128.85245605 35.17467773 129.65022461 34.86498047 130.47216797 34.54589844 C132.5625 33.875 132.5625 33.875 135.5625 33.875 C134.99825318 37.64549641 133.99573217 40.21338353 131.875 43.375 C131.39675781 44.1071875 130.91851562 44.839375 130.42578125 45.59375 C125.75130256 51.31680148 121.37044214 53.72692235 114.375 55.5625 C113.61815918 55.76963623 112.86131836 55.97677246 112.08154297 56.19018555 C109.91324122 56.7723933 107.73987701 57.32787781 105.5625 57.875 C104.60988281 58.12507813 103.65726562 58.37515625 102.67578125 58.6328125 C92.48278023 60.90503565 77.58514418 62.51280091 68.21484375 57.11328125 C62.88492326 53.11899096 61.4201724 49.81229319 59.625 43.5 C57.29935569 35.41999468 54.20563636 30.33747014 47.125 25.6875 C33.72956432 18.35190427 18.07278125 15.23352324 2.90234375 14.6484375 C2.17007568 14.61975586 1.43780762 14.59107422 0.68334961 14.56152344 C-1.31462708 14.5035644 -3.31371939 14.4886519 -5.3125 14.4765625 C-8.4375 13.875 -8.4375 13.875 -10.3515625 11.56640625 C-11.74044749 8.12416971 -11.85368238 5.55127773 -11.4375 1.875 C-7.54144636 -0.72236909 -4.4870129 -0.27545911 0 0 Z " fill="#76C046" transform="translate(158.4375,81.125)"/>
	<path d="M0 0 C2.79448795 0.07871797 5.42254704 0.2828648 8.1875 0.625 C8.99396973 0.72127686 9.80043945 0.81755371 10.63134766 0.91674805 C29.45088199 3.35480891 50.68924248 9.63903247 63 25 C68.98587302 34.08792701 71.63619236 45.18472981 71 56 C67.97606104 51.99938511 65.05836461 47.92438995 62.1328125 43.8515625 C54.38508459 33.49287866 45.16161019 26.27953182 33.6875 20.5 C33.04256592 20.17402832 32.39763184 19.84805664 31.7331543 19.51220703 C27.24570402 17.35313452 22.86049441 16.07891108 18 15 C25.00023556 20.8292423 25.00023556 20.8292423 32.203125 26.40234375 C42.73616271 34.22756949 53.64347782 42.66754195 59 55 C53.35530989 54.46001852 48.47382558 53.40644636 43.1875 51.375 C42.49317871 51.10921143 41.79885742 50.84342285 41.08349609 50.56958008 C30.48886885 46.35795229 22.10069354 39.95218082 14 32 C13.2884375 31.31292969 12.576875 30.62585938 11.84375 29.91796875 C4.6854053 22.49806915 -1.39832161 12.47176436 -2 2 C-1.34 1.34 -0.68 0.68 0 0 Z " fill="#75C046" transform="translate(154,104)"/>
	<path d="M0 0 C11.01792669 3.72247455 21.39446499 9.1097454 28 19 C29.28548067 21.93534957 30.14594608 24.91653259 31 28 C32.6558366 32.94802936 34.44044723 36.20209262 39 39 C55.69462976 45.95609574 77.00904505 37.84143516 92.70288086 31.5546875 C93.58210205 31.21050781 94.46132324 30.86632812 95.3671875 30.51171875 C96.14175293 30.19678467 96.91631836 29.88185059 97.71435547 29.55737305 C100.53670619 28.86911982 102.25915892 29.05620083 105 30 C108.1483475 35.56208058 108.1483475 35.56208058 107.78295898 39.10375977 C106.57216135 42.03617798 104.1659301 42.76855475 101.40283203 44.02685547 C97.1451474 45.75121342 92.82140325 47.19499133 88.4375 48.5625 C86.98114136 49.01701538 86.98114136 49.01701538 85.49536133 49.48071289 C70.80401532 53.97558111 51.74728494 59.56935931 37.015625 52.37890625 C30.44732452 47.88547588 28.49262092 42.00514382 26.69140625 34.54296875 C24.54872131 26.66224618 18.44918654 22.58191136 11.73828125 18.6875 C2.73254936 14.16342746 -7.23403275 12.23160604 -17 10 C-17.33 8.68 -17.66 7.36 -18 6 C-16.70982586 5.01886757 -15.41780894 4.04015801 -14.125 3.0625 C-13.04605469 2.24458984 -13.04605469 2.24458984 -11.9453125 1.41015625 C-7.8790126 -1.53750291 -4.74189237 -1.08621547 0 0 Z " fill="#2C5C90" transform="translate(190,19)"/>
	<path d="M0 0 C4.56420032 4.73143819 6.32551588 9.22273317 7.93945312 15.52148438 C9.49307996 20.88013413 11.54467029 22.92774974 16 26 C30.54406136 31.17669981 47.06524492 26.64750598 61.1328125 21.76953125 C64.27391083 20.92648442 66.763401 20.676789 70 21 C72.9375 23.6875 72.9375 23.6875 75 27 C74.62890625 29.70703125 74.62890625 29.70703125 74 32 C31.71577111 47.17400468 31.71577111 47.17400468 14 39 C8.65883647 34.68161246 6.27347586 30.3473627 4.8125 23.75 C2.54617708 15.07021685 -2.99466439 9.99393069 -10.5 5.4375 C-11.9911347 4.60884231 -13.48805644 3.79005248 -15 3 C-14.67 1.68 -14.34 0.36 -14 -1 C-8.27147632 -3.22126428 -5.53071794 -3.27746248 0 0 Z " fill="#76C046" transform="translate(213,10)"/>
	<path d="M0 0 C1.875 0.125 1.875 0.125 4 1 C4.391875 1.763125 4.78375 2.52625 5.1875 3.3125 C7.9406682 7.39478388 11.31066383 8.70288111 16 10 C22.11899802 10.41214645 28.2231831 9.99775818 34.33984375 9.66796875 C42.68194855 9.4162299 47.69605106 10.34796546 54 16 C53.67 17.32 53.34 18.64 53 20 C39.75215254 24.43177693 24.41864788 28.53888917 10.6875 23.5625 C5.04042656 20.34524302 1.8864182 15.14760537 0.15625 9.00390625 C-0.37401148 6.32120179 -0.83912443 3.73000968 -1 1 C-0.67 0.67 -0.34 0.34 0 0 Z " fill="#75C046" transform="translate(218,5)"/>
	<path d="M0 0 C0 1.32 0 2.64 0 4 C-8.84243847 8.56274354 -17.53332799 12.48254944 -27.1875 15 C-27.97616455 15.20713623 -28.7648291 15.41427246 -29.57739258 15.62768555 C-33.80573301 16.66675795 -37.61245124 17.22392593 -42 17 C-35.57689911 7.36534866 -23.85213953 2.70405794 -12.9375 -0.0625 C-8.2838252 -0.97702813 -4.59105788 -1.17445667 0 0 Z " fill="#75C046" transform="translate(272,143)"/>
	<path d="M0 0 C1.051875 -0.02126953 1.051875 -0.02126953 2.125 -0.04296875 C4 0.1875 4 0.1875 6 2.1875 C5.31292969 2.23648438 4.62585938 2.28546875 3.91796875 2.3359375 C2.56638672 2.44808594 2.56638672 2.44808594 1.1875 2.5625 C0.29417969 2.63210937 -0.59914062 2.70171875 -1.51953125 2.7734375 C-4.24398499 3.05395036 -4.24398499 3.05395036 -7 5.1875 C-6.625 3.25 -6.625 3.25 -6 1.1875 C-3.77109005 0.07304502 -2.46944894 0.02269714 0 0 Z " fill="#3E6999" transform="translate(167,36.8125)"/>
	<path d="M0 0 C0.66 0.33 1.32 0.66 2 1 C0.87895467 2.31587941 -0.24696965 3.62760353 -1.375 4.9375 C-2.00148438 5.66839844 -2.62796875 6.39929688 -3.2734375 7.15234375 C-5 9 -5 9 -7 10 C-6.42424336 6.64749299 -5.40693737 5.06181371 -2.9375 2.75 C-2.38964844 2.22921875 -1.84179688 1.7084375 -1.27734375 1.171875 C-0.64505859 0.59179688 -0.64505859 0.59179688 0 0 Z " fill="#336193" transform="translate(76,214)"/>
	<path d="M0 0 C4.29 0.33 8.58 0.66 13 1 C13.33 1.99 13.66 2.98 14 4 C9.03083364 3.48594831 4.70973649 2.76615118 0 1 C0 0.67 0 0.34 0 0 Z " fill="#7CC34E" transform="translate(199,155)"/>
	<path d="M0 0 C1.8125 0.1875 1.8125 0.1875 4 1 C5.625 3.4375 5.625 3.4375 7 6 C7.66 6.66 8.32 7.32 9 8 C6.13667247 7.60505827 5.22490611 7.29687606 3.4375 4.9375 C2.963125 4.298125 2.48875 3.65875 2 3 C1.01 3 0.02 3 -1 3 C-0.67 2.01 -0.34 1.02 0 0 Z " fill="#7FC452" transform="translate(218,5)"/>
	<path d="M0 0 C0.33 0.99 0.66 1.98 1 3 C0.01 3 -0.98 3 -2 3 C-2 2.34 -2 1.68 -2 1 C-5.63 1 -9.26 1 -13 1 C-13 0.67 -13 0.34 -13 0 C-8.37078475 -1.0161692 -4.65537393 -0.83796731 0 0 Z " fill="#82C656" transform="translate(272,143)"/>
</svg>
